<?xml version="1.0" standalone="no"?>
<!DOCTYPE svg PUBLIC "-//W3C//DTD SVG 20010904//EN"
 "http://www.w3.org/TR/2001/REC-SVG-20010904/DTD/svg10.dtd">
<svg version="1.0" xmlns="http://www.w3.org/2000/svg"
 width="121.000000pt" height="121.000000pt" viewBox="0 0 121.000000 121.000000"
 preserveAspectRatio="xMidYMid meet">
<metadata>
Created by potrace 1.11, written by Peter Selinger 2001-2013
</metadata>
<g transform="translate(0.000000,121.000000) scale(0.100000,-0.100000)"
fill="#000000" stroke="none">
<path d="M1188 1203 c7 -3 16 -2 19 1 4 3 -2 6 -13 5 -11 0 -14 -3 -6 -6z"/>
<path d="M656 1177 c-13 -10 -8 -12 32 -14 26 0 40 1 32 4 -8 3 -22 9 -31 14
-10 5 -23 3 -33 -4z"/>
<path d="M1130 1174 c0 -9 5 -12 12 -8 7 5 8 3 4 -5 -5 -7 0 -18 10 -27 18
-14 18 -14 -1 -12 -12 2 -20 -3 -20 -12 0 -18 67 -20 73 -2 2 7 -2 12 -8 12
-7 0 -9 8 -5 20 5 16 2 20 -17 21 -21 0 -21 1 -4 8 18 7 18 8 2 14 -29 11 -46
8 -46 -9z"/>
<path d="M938 1158 c-9 -5 -4 -8 15 -8 15 0 27 4 27 8 0 11 -25 11 -42 0z"/>
<path d="M580 1151 c-8 -5 -40 -8 -70 -8 -31 0 -66 -6 -79 -12 -12 -7 -37 -13
-54 -13 -38 -1 -65 -13 -92 -42 -11 -11 -34 -28 -50 -36 -27 -14 -30 -20 -27
-57 3 -30 -1 -46 -15 -60 -11 -11 -17 -25 -15 -31 2 -7 -3 -12 -12 -12 -21 0
-20 19 2 43 17 19 16 19 -6 6 -20 -12 -23 -20 -18 -51 3 -20 9 -44 12 -53 6
-14 3 -16 -16 -10 -16 5 -21 4 -18 -6 3 -8 14 -14 25 -14 30 0 36 -10 23 -34
-8 -16 -8 -21 2 -21 9 0 9 -3 -2 -10 -13 -8 -12 -10 3 -10 22 0 22 -12 -1 -40
-18 -22 -19 -22 -51 -6 -50 27 -51 9 -1 -36 27 -25 40 -42 33 -45 -17 -6 -16
-38 1 -52 12 -10 17 -8 26 9 8 15 8 26 2 32 -13 13 -3 48 13 48 6 0 21 -8 32
-18 15 -13 19 -26 15 -54 -3 -24 0 -38 7 -38 6 0 11 17 11 40 0 43 29 80 62
80 11 0 18 7 18 19 0 17 -4 18 -30 11 -16 -5 -32 -5 -34 -2 -2 4 4 32 15 62
10 30 19 71 19 91 0 46 29 84 78 100 20 7 46 18 58 25 33 22 113 38 190 37 91
0 138 -22 170 -80 13 -24 21 -43 18 -43 -4 0 -1 -7 6 -15 7 -8 9 -15 6 -15 -4
0 -2 -8 3 -18 15 -27 -19 -62 -62 -62 -33 0 -67 -23 -53 -37 3 -4 25 -10 49
-14 l42 -6 -46 -2 c-71 -2 -139 -13 -139 -22 0 -5 10 -9 21 -9 17 0 20 -4 16
-22 -9 -31 20 -112 49 -139 31 -29 32 -65 2 -72 -12 -4 -19 -10 -15 -14 11
-11 49 -14 42 -4 -3 5 -1 12 5 16 16 10 12 57 -8 90 -10 17 -17 36 -16 43 1 6
2 22 3 35 2 29 21 57 27 40 3 -7 21 -15 40 -19 19 -3 34 -10 34 -15 0 -13 55
-38 67 -31 5 4 13 14 17 22 3 8 4 4 2 -9 -3 -14 3 -34 14 -50 18 -23 19 -36
11 -127 -9 -121 -43 -204 -93 -230 -28 -15 -30 -14 -35 5 -8 31 -17 26 -57
-28 -50 -68 -48 -97 7 -92 10 2 24 -10 35 -28 l17 -30 200 0 c132 -1 195 3
185 9 -10 6 -11 10 -2 10 8 0 12 15 12 43 0 26 -3 37 -9 29 -6 -10 -11 -9 -22
4 -8 10 -9 15 -4 12 6 -4 17 -3 25 2 12 7 13 13 4 28 -8 13 -9 24 -2 36 16 29
-4 206 -23 206 -5 0 -9 -5 -9 -12 0 -6 -2 -9 -5 -7 -7 8 7 49 15 44 5 -3 12 0
16 6 4 8 3 9 -4 5 -8 -5 -12 0 -12 13 0 13 7 21 18 21 16 1 16 1 0 14 -18 13
-25 32 -9 22 15 -10 20 18 20 120 0 67 -3 100 -12 106 -9 6 -9 8 1 8 6 0 12 4
12 10 0 5 -6 7 -14 4 -8 -3 -17 -1 -21 5 -3 7 3 11 15 11 17 0 21 5 18 28 -2
18 -8 27 -20 26 -10 -1 -16 1 -14 5 2 3 -7 14 -19 23 -23 17 -24 17 -23 0 0
-9 -4 -30 -9 -46 -8 -27 -10 -27 -23 -10 -13 16 -13 17 0 9 13 -8 13 -7 0 10
-11 14 -12 19 -2 22 6 3 12 11 12 19 0 8 -6 11 -15 7 -11 -4 -19 4 -28 26 -6
17 -15 31 -19 31 -4 0 -8 7 -8 15 0 8 5 15 10 15 6 0 10 5 10 11 0 5 -4 7 -10
4 -6 -3 -7 1 -4 9 6 14 -5 21 -28 17 -5 0 -8 6 -8 15 0 18 23 44 40 44 6 0 8
5 4 11 -4 7 -10 7 -16 1 -6 -6 -16 -9 -22 -8 -6 2 -8 1 -3 -1 13 -8 -3 -22
-18 -16 -18 6 -20 29 -2 37 6 3 0 3 -15 0 -20 -5 -30 -2 -34 10 -3 9 -15 16
-26 16 -10 0 -17 4 -14 9 3 4 -5 6 -18 4 -17 -4 -25 1 -28 15 -4 14 -12 19
-25 16 -10 -3 -32 0 -48 6 -23 9 -26 13 -15 20 12 8 9 10 -9 10 -20 0 -22 -3
-13 -12 7 -7 12 -17 12 -23 0 -14 -39 -13 -48 1 -12 16 -52 35 -52 24 0 -13
-43 -13 -55 -1 -6 6 -17 6 -25 2z m271 -493 l12 -23 -22 20 c-21 18 -25 19
-67 3 -26 -9 -47 -12 -50 -6 -3 5 -12 7 -20 4 -8 -3 -14 -1 -14 4 0 11 30 17
97 19 45 1 54 -2 64 -21z m270 -190 c0 -18 1 -48 2 -66 2 -26 -2 -32 -18 -32
-11 0 -31 -3 -45 -5 -23 -5 -23 -4 3 6 35 14 34 24 -5 37 l-33 11 41 -2 c36
-2 40 0 31 14 -6 9 -18 14 -29 11 -10 -2 -18 1 -18 7 0 6 7 11 15 11 8 0 15 9
15 20 0 13 7 20 20 20 16 0 20 -7 21 -32z m-1 -126 c0 -12 -7 -18 -24 -17 -29
0 -41 10 -31 24 11 19 55 13 55 -7z m-6 -63 c-3 -5 -10 -7 -15 -3 -5 3 -7 10
-3 15 3 5 10 7 15 3 5 -3 7 -10 3 -15z m70 -228 c3 -5 0 -11 -8 -14 -15 -6
-26 1 -26 15 0 11 27 10 34 -1z"/>
<path d="M916 1131 c-3 -5 1 -11 9 -15 8 -3 15 -1 15 4 0 13 -18 22 -24 11z"/>
<path d="M1123 1010 c-1 -12 4 -20 14 -20 9 0 13 -6 10 -14 -4 -9 1 -16 11
-18 15 -3 14 -6 -5 -23 -13 -11 -23 -31 -23 -45 0 -17 3 -21 8 -12 5 7 16 10
25 6 17 -6 47 11 47 27 0 5 -9 9 -20 9 -11 0 -20 4 -20 10 0 5 6 7 14 4 8 -3
17 -1 21 5 3 6 1 11 -6 11 -10 0 -10 3 -1 12 19 19 14 29 -8 16 -24 -15 -37
-4 -20 17 11 13 9 15 -11 15 -19 0 -21 2 -9 10 12 8 11 10 -5 10 -14 0 -21 -7
-22 -20z"/>
<path d="M1201 864 c0 -11 3 -14 6 -6 3 7 2 16 -1 19 -3 4 -6 -2 -5 -13z"/>
<path d="M459 743 c-15 -2 -39 -17 -55 -34 l-28 -29 90 2 89 2 -75 6 c-79 6
-76 8 37 26 48 7 59 14 42 25 -14 9 -52 9 -100 2z"/>
<path d="M560 676 c0 -2 11 -6 25 -8 14 -3 25 -1 25 3 0 5 -11 9 -25 9 -14 0
-25 -2 -25 -4z"/>
<path d="M477 663 c-25 -6 -17 -37 11 -41 15 -2 22 2 22 13 0 9 5 13 10 10 6
-4 8 -11 5 -16 -4 -5 3 -9 14 -9 24 0 25 4 11 31 -10 18 -34 22 -73 12z"/>
<path d="M595 450 c-3 -5 -2 -10 4 -10 5 0 13 5 16 10 3 6 2 10 -4 10 -5 0
-13 -4 -16 -10z"/>
<path d="M680 446 c0 -9 30 -14 35 -6 4 6 -3 10 -14 10 -12 0 -21 -2 -21 -4z"/>
<path d="M182 377 c-12 -21 -22 -42 -22 -48 0 -5 -4 -9 -9 -9 -5 0 -12 -8 -15
-17 -4 -11 4 -7 19 10 20 23 26 25 31 13 3 -9 11 -13 17 -9 6 4 8 -2 4 -18 -5
-22 -5 -22 7 -6 17 21 40 23 32 1 -3 -9 -6 -20 -6 -26 0 -6 -7 -8 -15 -4 -8 3
-15 2 -15 -2 0 -16 25 -32 50 -32 18 0 21 -3 11 -9 -10 -6 -10 -10 -1 -16 21
-13 24 5 11 53 -8 26 -16 63 -20 82 -3 19 -12 36 -19 36 -6 1 -16 2 -21 3 -5
0 -11 9 -13 18 -2 13 -9 8 -26 -20z"/>
<path d="M747 383 c-4 -3 0 -17 8 -30 15 -22 14 -23 -9 -23 -14 0 -28 -4 -31
-10 -3 -5 -16 -10 -28 -11 -15 0 -17 -2 -7 -6 8 -3 18 -10 21 -15 4 -6 20 -6
40 -1 24 7 34 15 35 30 1 11 4 26 8 32 13 20 -21 51 -37 34z"/>
<path d="M508 313 c6 -2 18 -2 25 0 6 3 1 5 -13 5 -14 0 -19 -2 -12 -5z"/>
<path d="M309 160 c-13 -34 32 -160 57 -160 11 0 8 10 -12 39 -14 22 -29 61
-33 88 -4 26 -9 41 -12 33z"/>
<path d="M202 147 c-9 -11 -10 -17 -2 -22 15 -9 23 -1 18 21 -3 15 -4 16 -16
1z"/>
<path d="M127 36 c-33 -14 -61 -27 -65 -30 -3 -3 27 -6 66 -6 l71 0 -1 30 c-1
17 -4 30 -7 30 -3 0 -32 -11 -64 -24z"/>
<path d="M220 20 c0 -19 3 -21 12 -12 9 9 9 15 0 24 -9 9 -12 7 -12 -12z"/>
</g>
</svg>
